<svg width="18" height="18" viewBox="0 0 18 18" fill="none" xmlns="http://www.w3.org/2000/svg">
<g clip-path="url(#clip0_8_604)">
<path d="M0.66626 11.5037V12.8767C0.66626 14.4634 1.83242 15.7828 3.35268 16.0231V17.0381H4.35105V16.0623H12.6871V17.0381H13.6855V16.0231C15.2058 15.7828 16.3719 14.4634 16.3719 12.8767V11.5037H0.66626Z" fill="#131212"/>
<path d="M1.66491 8.50711V2.74728C1.66491 1.78293 2.4495 0.998368 3.41386 0.998368C4.30697 0.998368 5.04534 1.67138 5.14967 2.5368C4.11007 2.77095 3.331 3.70109 3.331 4.81038V5.47607H7.99296V4.81038C7.99296 3.69311 7.20268 2.7574 6.15193 2.53164C6.04141 1.1173 4.85606 0 3.41386 0C1.89899 0 0.666544 1.23241 0.666544 2.74728V8.50711H0.000488281V10.5054H17.0383V8.50711H1.66491Z" fill="#131212"/>
</g>
<defs>
<clipPath id="clip0_8_604">
<rect width="17.0382" height="17.0382" fill="white"/>
</clipPath>
</defs>
</svg>
