<svg width="20" height="20" viewBox="0 0 20 20" fill="none" xmlns="http://www.w3.org/2000/svg">
<path d="M16.6763 8.90561C16.2869 8.73468 15.8662 8.64661 15.441 8.64697H4.32353C3.89833 8.64656 3.47769 8.73451 3.08826 8.90522C2.53787 9.14592 2.06952 9.54174 1.74046 10.0443C1.4114 10.5469 1.23588 11.1344 1.23535 11.7352V16.0586C1.23535 16.2224 1.30042 16.3795 1.41625 16.4953C1.53208 16.6112 1.68918 16.6762 1.85299 16.6762C2.0168 16.6762 2.17389 16.6112 2.28972 16.4953C2.40555 16.3795 2.47062 16.2224 2.47062 16.0586V15.7498C2.47163 15.6682 2.50448 15.5902 2.56218 15.5325C2.61988 15.4748 2.69785 15.442 2.77944 15.441H16.9851C17.0667 15.442 17.1446 15.4748 17.2023 15.5325C17.26 15.5902 17.2929 15.6682 17.2939 15.7498V16.0586C17.2939 16.2224 17.359 16.3795 17.4748 16.4953C17.5906 16.6112 17.7477 16.6762 17.9115 16.6762C18.0753 16.6762 18.2324 16.6112 18.3483 16.4953C18.4641 16.3795 18.5292 16.2224 18.5292 16.0586V11.7352C18.5286 11.1345 18.353 10.547 18.024 10.0445C17.6949 9.54204 17.2266 9.14627 16.6763 8.90561Z" fill="#131212"/>
<path d="M14.5144 3.08813H5.24986C4.67654 3.08813 4.12669 3.31589 3.72129 3.72129C3.31589 4.12669 3.08813 4.67654 3.08813 5.24986V8.02923C3.08815 8.05315 3.09373 8.07675 3.10443 8.09815C3.11513 8.11956 3.13065 8.13818 3.14978 8.15256C3.16891 8.16693 3.19112 8.17666 3.21465 8.18098C3.23819 8.18531 3.2624 8.1841 3.28539 8.17746C3.62257 8.07884 3.97211 8.02893 4.32341 8.02923H4.4867C4.52481 8.02947 4.56166 8.01561 4.59017 7.99031C4.61868 7.96501 4.63682 7.93006 4.6411 7.89219C4.67479 7.59039 4.81847 7.31158 5.04469 7.109C5.27091 6.90642 5.56383 6.79426 5.8675 6.79395H8.02923C8.3331 6.79398 8.6263 6.906 8.85276 7.10861C9.07923 7.31122 9.22307 7.59019 9.25678 7.89219C9.26107 7.93006 9.27921 7.96501 9.30771 7.99031C9.33622 8.01561 9.37308 8.02947 9.41119 8.02923H10.3554C10.3935 8.02947 10.4304 8.01561 10.4589 7.99031C10.4874 7.96501 10.5055 7.93006 10.5098 7.89219C10.5435 7.59059 10.687 7.31194 10.913 7.10938C11.1389 6.90683 11.4316 6.79455 11.735 6.79395H13.8968C14.2006 6.79398 14.4938 6.906 14.7203 7.10861C14.9468 7.31122 15.0906 7.59019 15.1243 7.89219C15.1286 7.93006 15.1468 7.96501 15.1753 7.99031C15.2038 8.01561 15.2406 8.02947 15.2787 8.02923H15.4409C15.7922 8.02906 16.1417 8.0791 16.4789 8.17785C16.5019 8.1845 16.5262 8.1857 16.5497 8.18135C16.5733 8.17701 16.5955 8.16724 16.6146 8.15283C16.6338 8.13841 16.6493 8.11973 16.66 8.09828C16.6706 8.07683 16.6762 8.05319 16.6761 8.02923V5.24986C16.6761 4.67654 16.4484 4.12669 16.043 3.72129C15.6376 3.31589 15.0877 3.08813 14.5144 3.08813Z" fill="#131212"/>
</svg>
