<svg width="18" height="18" viewBox="0 0 18 18" fill="none" xmlns="http://www.w3.org/2000/svg">
<path d="M16.3281 13.4885C16.3281 13.6768 16.2533 13.8574 16.1202 13.9905C15.987 14.1236 15.8065 14.1984 15.6182 14.1984H7.09906C6.91078 14.1984 6.7302 14.1236 6.59707 13.9905C6.46393 13.8574 6.38913 13.6768 6.38913 13.4885C6.38913 12.3588 6.83791 11.2754 7.63673 10.4765C8.43555 9.67772 9.51899 9.22894 10.6487 9.22894H12.0686C13.1983 9.22894 14.2817 9.67772 15.0805 10.4765C15.8793 11.2754 16.3281 12.3588 16.3281 13.4885ZM11.3586 2.8396C10.797 2.8396 10.248 3.00615 9.78097 3.31818C9.31398 3.63021 8.95001 4.07371 8.73507 4.5926C8.52014 5.11149 8.46391 5.68246 8.57348 6.23331C8.68305 6.78416 8.95351 7.29014 9.35065 7.68729C9.74779 8.08443 10.2538 8.35488 10.8046 8.46445C11.3555 8.57402 11.9264 8.51779 12.4453 8.30286C12.9642 8.08793 13.4077 7.72395 13.7198 7.25697C14.0318 6.78998 14.1983 6.24095 14.1983 5.67931C14.1983 4.92617 13.8991 4.20388 13.3666 3.67133C12.8341 3.13878 12.1118 2.8396 11.3586 2.8396ZM4.96928 2.8396C4.40764 2.8396 3.85861 3.00615 3.39162 3.31818C2.92463 3.63021 2.56066 4.07371 2.34573 4.5926C2.1308 5.11149 2.07456 5.68246 2.18414 6.23331C2.29371 6.78416 2.56416 7.29014 2.9613 7.68729C3.35844 8.08443 3.86443 8.35488 4.41528 8.46445C4.96613 8.57402 5.5371 8.51779 6.05599 8.30286C6.57488 8.08793 7.01838 7.72395 7.33041 7.25697C7.64244 6.78998 7.80899 6.24095 7.80899 5.67931C7.80899 4.92617 7.50981 4.20388 6.97726 3.67133C6.44471 3.13878 5.72242 2.8396 4.96928 2.8396ZM4.96928 13.4885C4.96822 12.7428 5.11514 12.0043 5.40151 11.3158C5.68789 10.6273 6.10803 10.0024 6.63761 9.47742C6.20422 9.31379 5.74489 9.22962 5.28165 9.22894H4.65691C3.61063 9.23082 2.60773 9.64729 1.8679 10.3871C1.12806 11.127 0.711594 12.1299 0.709717 13.1761V13.4885C0.709717 13.6768 0.784512 13.8574 0.91765 13.9905C1.05079 14.1236 1.23136 14.1984 1.41964 14.1984H5.09707C5.01441 13.9708 4.9712 13.7307 4.96928 13.4885Z" fill="#131212"/>
</svg>
